<svg width="37" height="37" viewBox="0 0 37 37" fill="none" xmlns="http://www.w3.org/2000/svg">
<path d="M18.5 32.375C26.163 32.375 32.375 26.163 32.375 18.5C32.375 10.837 26.163 4.625 18.5 4.625C10.837 4.625 4.625 10.837 4.625 18.5C4.625 26.163 10.837 32.375 18.5 32.375Z" stroke="white" stroke-width="1.75" stroke-linecap="round" stroke-linejoin="round"/>
<path d="M5.55005 13.875H31.45" stroke="white" stroke-width="1.75" stroke-linecap="round" stroke-linejoin="round"/>
<path d="M5.55005 23.125H31.45" stroke="white" stroke-width="1.75" stroke-linecap="round" stroke-linejoin="round"/>
<path d="M17.7292 4.625C15.132 8.7869 13.7551 13.5942 13.7551 18.5C13.7551 23.4058 15.132 28.2131 17.7292 32.375" stroke="white" stroke-width="1.75" stroke-linecap="round" stroke-linejoin="round"/>
<path d="M19.2709 4.625C21.8681 8.7869 23.245 13.5942 23.245 18.5C23.245 23.4058 21.8681 28.2131 19.2709 32.375" stroke="white" stroke-width="1.75" stroke-linecap="round" stroke-linejoin="round"/>
</svg>
