
<svg width="51" height="43" viewBox="0 0 51 43" fill="none" xmlns="http://www.w3.org/2000/svg">
<path fill-rule="evenodd" clip-rule="evenodd" d="M16.7664 37.7593C25.2556 39.8992 33.8617 35.3585 37.0338 27.4528C35.4951 27.8004 33.8537 27.8011 32.2194 27.3891C31.363 27.1733 30.5586 26.8567 29.8156 26.4552C27.5002 30.1975 22.951 32.1857 18.4565 31.0527C12.9006 29.6522 9.53191 24.0129 10.9324 18.457C12.3329 12.9011 17.9722 9.53244 23.5281 10.9329C24.3845 11.1488 25.1889 11.4654 25.9319 11.8668C27.2625 9.71625 29.3308 8.14498 31.7024 7.41242C29.8471 5.94754 27.6597 4.84154 25.219 4.22633C15.9591 1.89219 6.56032 7.50662 4.22619 16.7665C1.89205 26.0264 7.50648 35.4252 16.7664 37.7593ZM32.9775 25.797C37.6074 26.9641 42.3068 24.1569 43.4739 19.5269C44.641 14.897 41.8338 10.1976 37.2038 9.0305C32.5739 7.86343 27.8745 10.6706 26.7074 15.3006C25.5403 19.9305 28.3476 24.6299 32.9775 25.797Z" fill="url(#paint0_radial_1_33)"/>
<path fill-rule="evenodd" clip-rule="evenodd" d="M35.994 21.1864C44.4835 18.8345 50.8889 15.2075 50.301 13.0851C49.9086 11.669 46.5018 11.2806 41.7561 11.8776C42.1047 12.3111 42.3506 12.6812 42.5074 12.9962C44.7849 12.9202 46.3128 13.2754 46.5345 14.076C46.9682 15.6412 42.2442 18.3162 35.9832 20.0507C29.7222 21.7852 24.2952 21.9224 23.8616 20.3571C23.6503 19.5944 24.6635 18.5683 26.4824 17.5158C26.5268 17.0917 26.5526 16.6015 26.5156 16.0593C21.9918 18.0199 19.1581 20.1588 19.5579 21.6019C20.1459 23.7243 27.5046 23.5383 35.994 21.1864ZM34.0225 14.4924C34.0965 14.4712 34.1708 14.4501 34.2453 14.4292C34.1765 14.443 34.1104 14.4586 34.0474 14.4761C34.0391 14.4815 34.0308 14.487 34.0225 14.4924Z" fill="url(#paint1_radial_1_33)"/>
<defs>
<radialGradient id="paint0_radial_1_33" cx="0" cy="0" r="1" gradientUnits="userSpaceOnUse" gradientTransform="translate(19.9866 17.4654) rotate(93.3241) scale(20.8362 23.3366)">
<stop stop-color="#6A9DF5"/>
<stop offset="1" stop-color="#0BE1D2"/>
</radialGradient>
<radialGradient id="paint1_radial_1_33" cx="0" cy="0" r="1" gradientUnits="userSpaceOnUse" gradientTransform="translate(31.4014 16.4839) rotate(-2.378) scale(16.4127 26.6776)">
<stop stop-color="#6D85FB"/>
<stop offset="0.994792" stop-color="#0BE1D2"/>
</radialGradient>
</defs>
</svg>
